REM DIRINDEX 1\2,1\3,1\4
REM DIRNAME cjc151,folder01,folder02,folder03
TITLE ""
FILE "055 055_TOEFL_3900.mp3" MP3
  TRACK 01 AUDIO
    TITLE "2:cjc151_2366"
    INDEX 01 00:00:00
  TRACK 02 AUDIO
    TITLE "0:"
    INDEX 01 00:01:21
  TRACK 03 AUDIO
    TITLE "3:cjc151_2367"
    INDEX 01 00:03:00
  TRACK 04 AUDIO
    TITLE "0:"
    INDEX 01 00:07:13
  TRACK 05 AUDIO
    TITLE "2:cjc151_2368"
    INDEX 01 00:08:66
  TRACK 06 AUDIO
    TITLE "0:"
    INDEX 01 00:10:10
  TRACK 07 AUDIO
    TITLE "3:cjc151_2369"
    INDEX 01 00:11:58
  TRACK 08 AUDIO
    TITLE "0:"
    INDEX 01 00:15:30
  TRACK 09 AUDIO
    TITLE "2:cjc151_2370"
    INDEX 01 00:17:10
  TRACK 10 AUDIO
    TITLE "0:"
    INDEX 01 00:18:05
  TRACK 11 AUDIO
    TITLE "3:cjc151_2371"
    INDEX 01 00:19:60
  TRACK 12 AUDIO
    TITLE "0:"
    INDEX 01 00:24:67
  TRACK 13 AUDIO
    TITLE "2:cjc151_2372"
    INDEX 01 00:26:44
  TRACK 14 AUDIO
    TITLE "0:"
    INDEX 01 00:28:62
  TRACK 15 AUDIO
    TITLE "3:cjc151_2373"
    INDEX 01 00:30:46
  TRACK 16 AUDIO
    TITLE "0:"
    INDEX 01 00:33:36
  TRACK 17 AUDIO
    TITLE "2:cjc151_2374"
    INDEX 01 00:35:14
  TRACK 18 AUDIO
    TITLE "0:"
    INDEX 01 00:36:31
  TRACK 19 AUDIO
    TITLE "3:cjc151_2375"
    INDEX 01 00:38:04
  TRACK 20 AUDIO
    TITLE "0:"
    INDEX 01 00:41:73
  TRACK 21 AUDIO
    TITLE "2:cjc151_2376"
    INDEX 01 00:43:50
  TRACK 22 AUDIO
    TITLE "0:"
    INDEX 01 00:44:42
  TRACK 23 AUDIO
    TITLE "3:cjc151_2377"
    INDEX 01 00:46:23
  TRACK 24 AUDIO
    TITLE "0:"
    INDEX 01 00:49:29
  TRACK 25 AUDIO
    TITLE "2:cjc151_2378"
    INDEX 01 00:51:03
  TRACK 26 AUDIO
    TITLE "0:"
    INDEX 01 00:52:06
  TRACK 27 AUDIO
    TITLE "3:cjc151_2379"
    INDEX 01 00:53:60
  TRACK 28 AUDIO
    TITLE "0:"
    INDEX 01 00:59:04
  TRACK 29 AUDIO
    TITLE "2:cjc151_2380"
    INDEX 01 01:00:59
  TRACK 30 AUDIO
    TITLE "0:"
    INDEX 01 01:02:08
  TRACK 31 AUDIO
    TITLE "3:cjc151_2381"
    INDEX 01 01:03:57
  TRACK 32 AUDIO
    TITLE "0:"
    INDEX 01 01:07:31
  TRACK 33 AUDIO
    TITLE "2:cjc151_2382"
    INDEX 01 01:09:09
  TRACK 34 AUDIO
    TITLE "0:"
    INDEX 01 01:10:22
  TRACK 35 AUDIO
    TITLE "3:cjc151_2383"
    INDEX 01 01:12:01
  TRACK 36 AUDIO
    TITLE "0:"
    INDEX 01 01:15:15
  TRACK 37 AUDIO
    TITLE "2:cjc151_2384"
    INDEX 01 01:17:28
  TRACK 38 AUDIO
    TITLE "0:"
    INDEX 01 01:18:27
  TRACK 39 AUDIO
    TITLE "3:cjc151_2385"
    INDEX 01 01:20:18
  TRACK 40 AUDIO
    TITLE "0:"
    INDEX 01 01:24:28
  TRACK 41 AUDIO
    TITLE "2:cjc151_2386"
    INDEX 01 01:26:07
  TRACK 42 AUDIO
    TITLE "0:"
    INDEX 01 01:27:04
  TRACK 43 AUDIO
    TITLE "3:cjc151_2387"
    INDEX 01 01:28:57
  TRACK 44 AUDIO
    TITLE "0:"
    INDEX 01 01:32:41
  TRACK 45 AUDIO
    TITLE "2:cjc151_2388"
    INDEX 01 01:34:18
  TRACK 46 AUDIO
    TITLE "0:"
    INDEX 01 01:35:22
  TRACK 47 AUDIO
    TITLE "3:cjc151_2389"
    INDEX 01 01:37:01
  TRACK 48 AUDIO
    TITLE "0:"
    INDEX 01 01:41:09
  TRACK 49 AUDIO
    TITLE "2:cjc151_2390"
    INDEX 01 01:42:65
  TRACK 50 AUDIO
    TITLE "0:"
    INDEX 01 01:44:05
  TRACK 51 AUDIO
    TITLE "3:cjc151_2391"
    INDEX 01 01:45:53
  TRACK 52 AUDIO
    TITLE "0:"
    INDEX 01 01:49:43
  TRACK 53 AUDIO
    TITLE "2:cjc151_2392"
    INDEX 01 01:51:21
  TRACK 54 AUDIO
    TITLE "0:"
    INDEX 01 01:52:22
  TRACK 55 AUDIO
    TITLE "3:cjc151_2393"
    INDEX 01 01:54:01
  TRACK 56 AUDIO
    TITLE "0:"
    INDEX 01 01:57:43
  TRACK 57 AUDIO
    TITLE "2:cjc151_2394"
    INDEX 01 01:59:22
  TRACK 58 AUDIO
    TITLE "0:"
    INDEX 01 02:00:27
  TRACK 59 AUDIO
    TITLE "3:cjc151_2395"
    INDEX 01 02:02:07
  TRACK 60 AUDIO
    TITLE "0:"
    INDEX 01 02:06:28
  TRACK 61 AUDIO
    TITLE "2:cjc151_2396"
    INDEX 01 02:08:07
  TRACK 62 AUDIO
    TITLE "0:"
    INDEX 01 02:09:05
  TRACK 63 AUDIO
    TITLE "3:cjc151_2397"
    INDEX 01 02:10:59
  TRACK 64 AUDIO
    TITLE "0:"
    INDEX 01 02:14:45
  TRACK 65 AUDIO
    TITLE "2:cjc151_2398"
    INDEX 01 02:16:24
  TRACK 66 AUDIO
    TITLE "0:"
    INDEX 01 02:17:16
  TRACK 67 AUDIO
    TITLE "3:cjc151_2399"
    INDEX 01 02:18:72
  TRACK 68 AUDIO
    TITLE "0:"
    INDEX 01 02:22:33
  TRACK 69 AUDIO
    TITLE "2:cjc151_2400"
    INDEX 01 02:24:36
  TRACK 70 AUDIO
    TITLE "0:"
    INDEX 01 02:25:57
  TRACK 71 AUDIO
    TITLE "3:cjc151_2401"
    INDEX 01 02:27:36
  TRACK 72 AUDIO
    TITLE "0:"
    INDEX 01 02:30:50
  TRACK 73 AUDIO
    TITLE "2:cjc151_2402"
    INDEX 01 02:32:29
  TRACK 74 AUDIO
    TITLE "0:"
    INDEX 01 02:33:35
  TRACK 75 AUDIO
    TITLE "3:cjc151_2403"
    INDEX 01 02:35:10
  TRACK 76 AUDIO
    TITLE "0:"
    INDEX 01 02:39:02
  TRACK 77 AUDIO
    TITLE "2:cjc151_2404"
    INDEX 01 02:40:56
  TRACK 78 AUDIO
    TITLE "0:"
    INDEX 01 02:42:06
  TRACK 79 AUDIO
    TITLE "3:cjc151_2405"
    INDEX 01 02:43:61
  TRACK 80 AUDIO
    TITLE "0:"
    INDEX 01 02:47:25
  TRACK 81 AUDIO
    TITLE "2:cjc151_2406"
    INDEX 01 02:49:04
  TRACK 82 AUDIO
    TITLE "0:"
    INDEX 01 02:50:29
  TRACK 83 AUDIO
    TITLE "3:cjc151_2407"
    INDEX 01 02:52:09
  TRACK 84 AUDIO
    TITLE "0:"
    INDEX 01 02:55:62
  TRACK 85 AUDIO
    TITLE "2:cjc151_2408"
    INDEX 01 02:57:41
  TRACK 86 AUDIO
    TITLE "0:"
    INDEX 01 02:58:33
  TRACK 87 AUDIO
    TITLE "3:cjc151_2409"
    INDEX 01 03:00:12
  TRACK 88 AUDIO
    TITLE "0:"
    INDEX 01 03:03:51
